<?xml version="1.0" standalone="no"?><svg xmlns="http://www.w3.org/2000/svg" viewBox="0 0 1440 320"><path fill="#afe9f4" fill-opacity="1" d="M0,288L34.3,293.3C68.6,299,137,309,206,288C274.3,267,343,213,411,202.7C480,192,549,224,617,250.7C685.7,277,754,299,823,272C891.4,245,960,171,1029,170.7C1097.1,171,1166,245,1234,250.7C1302.9,256,1371,192,1406,160L1440,128L1440,0L1405.7,0C1371.4,0,1303,0,1234,0C1165.7,0,1097,0,1029,0C960,0,891,0,823,0C754.3,0,686,0,617,0C548.6,0,480,0,411,0C342.9,0,274,0,206,0C137.1,0,69,0,34,0L0,0Z"></path></svg>